<svg width="70" height="72" viewBox="0 0 70 72" fill="none" xmlns="http://www.w3.org/2000/svg">
<path d="M27.8052 14.8286C27.3951 13.5386 25.9773 12.8209 24.6309 13.214C23.2933 13.607 22.5444 14.9482 22.9457 16.2382C23.3558 17.5284 24.7646 18.2631 26.1111 17.87C27.4576 17.477 28.2156 16.1101 27.8052 14.8286ZM15.7942 18.3143C15.3929 17.0328 13.9751 16.3151 12.6287 16.7081C11.2823 17.0925 10.5332 18.4424 10.9345 19.7324C11.3446 21.0139 12.7535 21.7486 14.1 21.3642C15.4465 20.9712 16.2044 19.6043 15.7942 18.3143ZM27.8052 14.8286C27.3951 13.5386 25.9773 12.8209 24.6309 13.214C23.2933 13.607 22.5444 14.9482 22.9457 16.2382C23.3558 17.5284 24.7646 18.2631 26.1111 17.87C27.4576 17.477 28.2156 16.1101 27.8052 14.8286ZM15.7942 18.3143C15.3929 17.0328 13.9751 16.3151 12.6287 16.7081C11.2823 17.0925 10.5332 18.4424 10.9345 19.7324C11.3446 21.0139 12.7535 21.7486 14.1 21.3642C15.4465 20.9712 16.2044 19.6043 15.7942 18.3143ZM27.8052 14.8286C27.3951 13.5386 25.9773 12.8209 24.6309 13.214C23.2933 13.607 22.5444 14.9482 22.9457 16.2382C23.3558 17.5284 24.7646 18.2631 26.1111 17.87C27.4576 17.477 28.2156 16.1101 27.8052 14.8286ZM12.6287 16.7081C11.2823 17.0925 10.5332 18.4424 10.9345 19.7324C11.3446 21.0139 12.7535 21.7486 14.1 21.3642C15.4465 20.9712 16.2044 19.6043 15.7942 18.3143C15.3929 17.0328 13.9751 16.3151 12.6287 16.7081ZM69.9912 50.1463C69.9287 48.7282 68.6982 47.6262 67.2181 47.6944C65.7467 47.7543 64.5965 48.9417 64.6499 50.3515C64.6499 50.4626 64.9621 61.133 56.5267 65.2508C51.8275 67.5489 47.2263 67.3953 42.8392 64.8066C42.2685 64.4734 41.7424 64.1146 41.252 63.7558C48.8582 63.2346 57.4361 59.9968 60.6552 53.444C60.7355 53.2989 60.8067 53.1536 60.8603 53.0084C60.9406 52.8546 61.0029 52.6923 61.0654 52.5385C61.1011 52.4446 61.1456 52.342 61.1813 52.2394C61.3328 51.8295 61.4667 51.4108 61.6361 51.0093C61.8589 50.4626 62.0819 49.9157 62.2959 49.3689L65.6755 41.0563C65.8983 40.5096 66.032 39.9373 66.0766 39.3477V39.3307C66.0856 39.2366 66.0945 39.1342 66.0945 39.0401V29.4717C66.0945 28.8054 65.8092 28.2074 65.3545 27.7716C64.8996 27.3359 64.2666 27.0626 63.5711 27.0626C62.189 27.0626 61.0565 28.1475 61.0565 29.4717V33.2992C60.1469 33.1624 59.1929 33.2223 58.2655 33.5127C57.026 33.8971 56.0183 34.6319 55.3051 35.5631C55.3051 35.5631 55.1623 35.6912 54.9216 35.9049C53.3433 34.0253 51.6492 32.2484 49.9638 30.6166C49.6517 30.3176 49.3397 30.027 49.0187 29.7366L56.5712 26.6354C58.1407 25.9947 58.863 24.2604 58.1941 22.7567L58.1496 22.6628C57.4807 21.1592 55.6618 20.4671 54.1013 21.108L49.0453 23.1839L54.4223 16.4347C55.0286 15.8452 55.3408 15.0763 55.3408 14.3075C55.3408 13.5386 55.0286 12.7612 54.4223 12.1802C53.1918 11.0013 51.2033 11.0013 49.9816 12.1802L38.7197 22.9617C37.5158 22.4321 36.2674 21.9878 34.9924 21.612C34.6714 21.518 34.3503 21.424 34.0293 21.3386C34.5197 20.228 34.7873 19.0661 34.7962 17.8786C36.1069 18.1348 37.6495 18.5962 39.3706 19.254C39.4865 19.2967 39.5668 19.3309 39.5845 19.3309C39.6469 19.3479 39.7005 19.3479 39.7539 19.3309C39.8521 19.3052 39.9324 19.2284 39.959 19.1259C40.0036 18.9721 39.9145 18.8098 39.7628 18.75C39.7362 18.7415 39.6826 18.7243 39.6023 18.6903C38.3184 18.2032 36.5171 17.5881 34.7783 17.255C34.7516 16.7594 34.6714 16.2554 34.5465 15.7513C35.8395 15.9563 37.3553 16.3578 39.0407 16.9302C39.1655 16.9729 39.2458 16.9986 39.2635 17.0071C39.317 17.0157 39.3706 17.0156 39.4151 16.9986C39.5221 16.9644 39.6023 16.8875 39.6291 16.785C39.6737 16.6312 39.5757 16.4689 39.4151 16.4177C39.3883 16.4092 39.3349 16.392 39.2546 16.3665C37.9528 15.9221 36.1158 15.3669 34.3592 15.102C34.2701 14.8201 34.163 14.5467 34.0382 14.2734C35.5185 13.7778 37.6229 13.4446 40.1909 13.3165C40.3157 13.308 40.4049 13.2994 40.4137 13.2994C40.4317 13.2994 40.4406 13.2994 40.4494 13.2994C40.6011 13.2567 40.6902 13.12 40.6724 12.9747C40.6456 12.8039 40.494 12.6928 40.3246 12.71C40.298 12.71 40.2444 12.71 40.1552 12.727C38.3986 12.8039 35.7681 13.0431 33.7797 13.7351C33.4141 13.0431 32.9682 12.4194 32.451 11.83C31.1312 10.3435 29.2587 8.02822 28.4473 6.20849C28.0728 5.38835 27.7964 4.50835 27.6181 3.61132C27.4487 2.72281 27.4219 1.72335 26.9315 0.911732C26.1467 -0.352732 24.3901 -0.139079 23.2756 0.569973C21.9647 1.40727 21.1712 2.80836 20.6271 4.18376C20.2706 5.12349 20.0387 6.54173 19.8068 7.70363C19.7534 7.70363 19.7177 7.70363 19.6642 7.71214C18.5495 7.73782 17.7024 7.91714 16.6681 8.19903C15.6426 8.51525 14.6261 8.89957 13.6987 9.44647C13.6452 9.46349 13.6184 9.48051 13.5739 9.5147C12.709 8.66889 11.6836 7.61808 10.8453 7.02862C9.59694 6.1743 8.12569 5.42254 6.55628 5.43106C5.21874 5.43106 3.62267 6.19998 3.71181 7.66093C3.7743 8.60065 4.32705 9.43781 4.70167 10.2751C5.07615 11.1123 5.3526 11.9923 5.52199 12.8723C5.90535 14.8201 5.69139 17.7419 5.45062 19.6812C5.34356 20.6124 5.36148 21.5436 5.53088 22.4663C3.61378 23.3462 1.55395 24.9866 0.243215 26.1398C0.180727 26.1997 0.145043 26.2424 0.127275 26.2509C-0.00658388 26.3535 -0.0422695 26.5328 0.0559039 26.6696C0.136159 26.7807 0.27875 26.8234 0.412609 26.7807C0.43926 26.7721 0.474947 26.7635 0.501749 26.738C0.519517 26.7293 0.573121 26.6781 0.671144 26.5927C2.55255 24.9352 4.26471 23.7392 5.67347 23.0728C5.70915 23.2266 5.75373 23.3719 5.79845 23.5171C5.89647 23.8332 6.01241 24.1408 6.14612 24.4312C4.73721 25.1062 3.37302 25.9605 2.38315 26.6269C2.32082 26.6781 2.26721 26.7123 2.24945 26.7208C2.1067 26.8062 2.05325 26.9771 2.13351 27.1224C2.20488 27.2505 2.36538 27.3102 2.49909 27.2675C2.51701 27.2675 2.54366 27.259 2.56158 27.2505C2.57935 27.242 2.64184 27.1907 2.74875 27.1224C4.0774 26.2254 5.299 25.5077 6.41368 24.978C6.59196 25.3282 6.80592 25.67 7.03781 25.9947C5.76276 27.1907 4.59462 28.6686 3.80095 29.7623C3.75638 29.8305 3.72069 29.8732 3.70293 29.8904C3.59587 30.0185 3.61379 30.198 3.73861 30.309C3.81887 30.3859 3.94369 30.403 4.04171 30.3773C4.09532 30.3603 4.13989 30.3261 4.18446 30.2919C4.20222 30.2748 4.23791 30.215 4.32705 30.1039C5.39717 28.6174 6.44937 27.3958 7.42131 26.4816C9.18678 28.6089 11.96 29.9161 15.1967 30.3346C15.4109 30.924 15.6248 31.505 15.7853 32.0946C16.775 35.845 17.0783 39.7578 18.0591 43.5169C20.1724 51.65 24.4792 60.4496 33.0574 63.0553C35.8841 66.857 42.0723 72 50.0263 72C52.8083 72 55.8044 71.3678 58.9521 69.83C70.4816 64.2 70.018 50.7273 69.9912 50.155V50.1463ZM14.3141 22.0135C12.5842 22.509 10.7651 21.5863 10.239 19.9289C9.71288 18.2801 10.6848 16.5373 12.4148 16.0417C14.1357 15.5377 15.9547 16.4604 16.4808 18.1178C17.0069 19.7751 16.035 21.5094 14.3141 22.0135ZM21.3406 20.2194L21.0463 20.7747C20.9125 21.0226 20.6005 21.1165 20.3508 20.9797L19.78 20.6723C19.6552 20.6039 19.5749 20.5098 19.5394 20.3988C19.468 20.1596 19.5929 19.8777 19.8782 19.7923L20.7431 19.5444C21.1712 19.4163 21.5456 19.8435 21.3406 20.2194ZM26.3162 18.5193C24.5952 19.0234 22.7761 18.0921 22.25 16.4347C21.7239 14.7859 22.6959 13.0516 24.4169 12.5475C26.1467 12.0435 27.9658 12.9747 28.4919 14.6236C29.018 16.2809 28.0371 18.0152 26.3162 18.5193Z" fill="#353536"/>
</svg>
