<svg width="24" height="24" viewBox="0 0 24 24" fill="none" xmlns="http://www.w3.org/2000/svg">
<path d="M8.49334 3.34667C8.25251 4.21047 8.13138 5.10325 8.13334 6C8.13334 11.44 12.56 15.8667 18 15.8667C18.9067 15.8667 19.8 15.7467 20.6533 15.5067C19.9529 17.2276 18.7558 18.7009 17.2146 19.7387C15.6734 20.7764 13.858 21.3316 12 21.3333C6.85334 21.3333 2.66667 17.1467 2.66667 12C2.66667 8.09333 5.08 4.73333 8.49334 3.34667ZM12 0C9.62663 0 7.30655 0.703788 5.33316 2.02236C3.35977 3.34094 1.8217 5.21508 0.913451 7.4078C0.00519935 9.60051 -0.232441 12.0133 0.230582 14.3411C0.693605 16.6688 1.83649 18.807 3.51472 20.4853C5.19295 22.1635 7.33115 23.3064 9.65892 23.7694C11.9867 24.2324 14.3995 23.9948 16.5922 23.0865C18.7849 22.1783 20.6591 20.6402 21.9776 18.6668C23.2962 16.6934 24 14.3734 24 12C24 11.3867 23.9467 10.7733 23.8667 10.1867C23.2004 11.1209 22.3202 11.8819 21.2995 12.4062C20.2788 12.9305 19.1474 13.2026 18 13.2C16.4736 13.2 14.9867 12.7152 13.7536 11.8155C12.5205 10.9158 11.6051 9.64774 11.1394 8.19414C10.6736 6.74054 10.6816 5.17657 11.1622 3.72781C11.6428 2.27905 12.5711 1.02037 13.8133 0.133333C13.2267 0.0533332 12.6133 0 12 0Z" fill="#353536"/>
</svg>
