<svg width="40" height="40" viewBox="0 0 40 40" fill="none" xmlns="http://www.w3.org/2000/svg">
<g opacity="0.8">
<path d="M20.0002 16.6667C21.7683 16.6667 23.464 15.9643 24.7142 14.7141C25.9645 13.4638 26.6668 11.7682 26.6668 10C26.6668 8.23193 25.9645 6.53624 24.7142 5.286C23.464 4.03575 21.7683 3.33337 20.0002 3.33337C18.2321 3.33337 16.5364 4.03575 15.2861 5.286C14.0359 6.53624 13.3335 8.23193 13.3335 10C13.3335 11.7682 14.0359 13.4638 15.2861 14.7141C16.5364 15.9643 18.2321 16.6667 20.0002 16.6667Z" stroke="#353536" stroke-width="4" stroke-linecap="round" stroke-linejoin="round"/>
<path d="M35 36.6666C35 34.6968 34.612 32.7463 33.8582 30.9264C33.1044 29.1065 31.9995 27.4529 30.6066 26.06C29.2137 24.6671 27.5601 23.5623 25.7403 22.8084C23.9204 22.0546 21.9698 21.6666 20 21.6666C18.0302 21.6666 16.0796 22.0546 14.2597 22.8084C12.4399 23.5623 10.7863 24.6671 9.3934 26.06C8.00052 27.4529 6.89563 29.1065 6.14181 30.9264C5.38799 32.7463 5 34.6968 5 36.6666" stroke="#353536" stroke-width="4" stroke-linecap="round" stroke-linejoin="round"/>
</g>
</svg>
