<svg width="16" height="16" viewBox="0 0 16 16" fill="none" xmlns="http://www.w3.org/2000/svg">
<path opacity="0.8" fill-rule="evenodd" clip-rule="evenodd" d="M10.7124 10.0629H11.4351L16 14.6369L14.6369 16L10.0629 11.4351V10.7124L9.8159 10.4563C8.7401 11.3838 7.36667 11.8935 5.94626 11.8925C4.7702 11.8925 3.62055 11.5438 2.6427 10.8904C1.66484 10.237 0.902692 9.30833 0.452634 8.22179C0.00257641 7.13525 -0.115179 5.93966 0.114258 4.7862C0.343696 3.63274 0.910021 2.57322 1.74162 1.74162C2.57322 0.910021 3.63274 0.343696 4.7862 0.114258C5.93966 -0.115179 7.13525 0.00257641 8.22179 0.452634C9.30833 0.902692 10.237 1.66484 10.8904 2.6427C11.5438 3.62055 11.8925 4.7702 11.8925 5.94626C11.8925 7.4191 11.3528 8.77301 10.4563 9.8159L10.7124 10.0629ZM1.82962 5.94626C1.82962 8.22413 3.66838 10.0629 5.94626 10.0629C8.22413 10.0629 10.0629 8.22413 10.0629 5.94626C10.0629 3.66838 8.22413 1.82962 5.94626 1.82962C3.66838 1.82962 1.82962 3.66838 1.82962 5.94626Z" fill="#353536"/>
</svg>
