<svg width="50" height="50" viewBox="0 0 50 50" fill="none" xmlns="http://www.w3.org/2000/svg">
<path d="M24.9998 20.8332C27.21 20.8332 29.3296 19.9552 30.8924 18.3924C32.4552 16.8296 33.3332 14.71 33.3332 12.4998C33.3332 10.2897 32.4552 8.17008 30.8924 6.60728C29.3296 5.04448 27.21 4.1665 24.9998 4.1665C22.7897 4.1665 20.6701 5.04448 19.1073 6.60728C17.5445 8.17008 16.6665 10.2897 16.6665 12.4998C16.6665 14.71 17.5445 16.8296 19.1073 18.3924C20.6701 19.9552 22.7897 20.8332 24.9998 20.8332Z" stroke="#353536" stroke-width="4" stroke-linecap="round" stroke-linejoin="round"/>
<path d="M43.75 45.8335C43.75 43.3712 43.265 40.933 42.3227 38.6582C41.3805 36.3833 39.9993 34.3163 38.2582 32.5752C36.5172 30.8341 34.4502 29.453 32.1753 28.5108C29.9005 27.5685 27.4623 27.0835 25 27.0835C22.5377 27.0835 20.0995 27.5685 17.8247 28.5108C15.5498 29.453 13.4828 30.8341 11.7417 32.5752C10.0006 34.3163 8.61953 36.3833 7.67726 38.6582C6.73498 40.933 6.25 43.3712 6.25 45.8335" stroke="#353536" stroke-width="4" stroke-linecap="round" stroke-linejoin="round"/>
</svg>
