<svg width="40" height="40" viewBox="0 0 40 40" fill="none" xmlns="http://www.w3.org/2000/svg">
<path d="M25.274 6.27H33.73V14.726C33.73 14.9912 33.8354 15.2456 34.0229 15.4331L38.5863 19.9965L34.0224 24.5674C33.8351 24.7549 33.73 25.009 33.73 25.274V33.73H25.274C25.0088 33.73 24.7544 33.8354 24.5669 34.0229L20.0035 38.5863L15.4326 34.0224C15.2451 33.8351 14.991 33.73 14.726 33.73H6.27V25.274C6.27 25.009 6.16485 24.7549 5.97764 24.5674L1.41368 19.9965L5.97711 15.4331C6.16464 15.2456 6.27 14.9912 6.27 14.726V6.27H14.726C14.991 6.27 15.2451 6.16485 15.4326 5.97764L20.0035 1.41368L24.5669 5.97711C24.7544 6.16464 25.0088 6.27 25.274 6.27Z" stroke="#353536" stroke-width="2" stroke-linecap="round" stroke-linejoin="round"/>
</svg>
